<svg width="900" height="480" viewBox="0 0 900 480" xmlns="http://www.w3.org/2000/svg">
  <defs>
    <style>
      text { font-family: 'JetBrains Mono','Fira Code',Consolas,monospace; }
    </style>
  </defs>

  <rect x="1" y="1" width="898" height="478" rx="14" fill="#10161F" stroke="#1E2732"/>

  <!-- window chrome dots -->
  <circle cx="30" cy="34" r="6" fill="#2B3542"/>
  <circle cx="54" cy="34" r="6" fill="#2B3542"/>
  <circle cx="78" cy="34" r="6" fill="#2B3542"/>
  <text x="112" y="40" font-size="14" letter-spacing="1" fill="#54606D">root@zero-contact — whoami</text>
  <line x1="24" y1="60" x2="876" y2="60" stroke="#1E2732"/>

  <g><text x="48" y="118" font-family="'JetBrains Mono',Consolas,monospace" font-size="14" letter-spacing="2" fill="#7C8797">ALIAS</text><text x="300" y="118" font-family="'JetBrains Mono',Consolas,monospace" font-size="18" letter-spacing="0.5" fill="#8FE3FF">ZERO-CONTACT</text></g>
      <g><text x="48" y="164" font-family="'JetBrains Mono',Consolas,monospace" font-size="14" letter-spacing="2" fill="#7C8797">REAL_NAME</text><rect x="300" y="147" width="150" height="22" rx="3" fill="#05070A" stroke="#1E2732"/><path d="M 370.0 155.0 V 150.0 A 5.0 5.0 0 0 1 380.0 150.0 V 155.0" stroke="#54606D" stroke-width="1.8" fill="none"/><rect x="367.5" y="155.0" width="15.0" height="11.0" rx="2.0" fill="#54606D"/><circle cx="375.0" cy="160.5" r="1.3" fill="#10161F"/></g>
      <g><text x="48" y="210" font-family="'JetBrains Mono',Consolas,monospace" font-size="14" letter-spacing="2" fill="#7C8797">LOCATION</text><rect x="300" y="193" width="190" height="22" rx="3" fill="#05070A" stroke="#1E2732"/><path d="M 390.0 201.0 V 196.0 A 5.0 5.0 0 0 1 400.0 196.0 V 201.0" stroke="#54606D" stroke-width="1.8" fill="none"/><rect x="387.5" y="201.0" width="15.0" height="11.0" rx="2.0" fill="#54606D"/><circle cx="395.0" cy="206.5" r="1.3" fill="#10161F"/></g>
      <g><text x="48" y="256" font-family="'JetBrains Mono',Consolas,monospace" font-size="14" letter-spacing="2" fill="#7C8797">STATUS</text><circle cx="306" cy="251" r="5" fill="#4CD6FF"><animate attributeName="opacity" values="1;0.35;1" dur="2s" repeatCount="indefinite"/></circle><text x="322" y="256" font-family="'JetBrains Mono',Consolas,monospace" font-size="18" letter-spacing="1" fill="#8FE3FF">BUILDING</text></g>
      <g><text x="48" y="302" font-family="'JetBrains Mono',Consolas,monospace" font-size="14" letter-spacing="2" fill="#7C8797">VISIBILITY</text><text x="300" y="302" font-family="'JetBrains Mono',Consolas,monospace" font-size="18" letter-spacing="0.5" fill="#E7ECF2">PUBLIC</text></g>
      <g><text x="48" y="348" font-family="'JetBrains Mono',Consolas,monospace" font-size="14" letter-spacing="2" fill="#7C8797">FOCUS</text><text x="300" y="348" font-family="'JetBrains Mono',Consolas,monospace" font-size="18" letter-spacing="0.5" fill="#E7ECF2">LEARNING · DESIGNING · EXPERIMENTING</text></g>
      <g><text x="48" y="394" font-family="'JetBrains Mono',Consolas,monospace" font-size="14" letter-spacing="2" fill="#7C8797">AVAILABILITY</text><text x="300" y="394" font-family="'JetBrains Mono',Consolas,monospace" font-size="18" letter-spacing="0.5" fill="#E7ECF2">OPEN TO IDEAS</text></g>

  <rect x="300" y="428" width="11" height="20" fill="#4CD6FF">
    <animate attributeName="opacity" values="1;0;1" dur="1s" repeatCount="indefinite"/>
  </rect>
</svg>
